<?xml version="1.0" encoding="UTF-8" standalone="no"?>
<!-- Created with Inkscape (http://www.inkscape.org/) -->

<svg
   width="24"
   height="24"
   viewBox="0 0 6.3499999 6.35"
   version="1.1"
   id="svg1"
   inkscape:version="1.4.2 (f4327f4, 2025-05-13)"
   sodipodi:docname="icon.svg"
   xmlns:inkscape="http://www.inkscape.org/namespaces/inkscape"
   xmlns:sodipodi="http://sodipodi.sourceforge.net/DTD/sodipodi-0.dtd"
   xmlns="http://www.w3.org/2000/svg"
   xmlns:svg="http://www.w3.org/2000/svg">
  <sodipodi:namedview
     id="namedview1"
     pagecolor="#ffffff"
     bordercolor="#000000"
     borderopacity="0.25"
     inkscape:showpageshadow="2"
     inkscape:pageopacity="0.0"
     inkscape:pagecheckerboard="0"
     inkscape:deskcolor="#d1d1d1"
     inkscape:document-units="mm"
     inkscape:zoom="16"
     inkscape:cx="10.5"
     inkscape:cy="17.03125"
     inkscape:window-width="1920"
     inkscape:window-height="1009"
     inkscape:window-x="-8"
     inkscape:window-y="-8"
     inkscape:window-maximized="1"
     inkscape:current-layer="layer1" />
  <defs
     id="defs1" />
  <g
     inkscape:label="Layer 1"
     inkscape:groupmode="layer"
     id="layer1">
    <rect
       style="fill:#cccccc;fill-opacity:1;stroke:none;stroke-width:0.0142502;stroke-dashoffset:9.31138"
       id="rect7"
       width="2.9316318"
       height="1.778834"
       x="2.5285485"
       y="2.6864326"
       ry="0" />
    <rect
       style="fill:#28d494;fill-opacity:1;stroke:none;stroke-width:0.00671268;stroke-dashoffset:9.31138"
       id="rect6"
       width="1.293065"
       height="0.89492118"
       x="2.4598551"
       y="1.9013673"
       ry="0" />
    <rect
       style="fill:#ff5555;fill-opacity:1;stroke:none;stroke-width:0.00991838;stroke-dashoffset:9.31138"
       id="rect8"
       width="1.853349"
       height="1.3631134"
       x="1.0570019"
       y="3.255975"
       ry="0" />
    <rect
       style="fill:#cccccc;fill-opacity:1;stroke:none;stroke-width:0.0128984;stroke-dashoffset:9.31138"
       id="rect5"
       width="2.2444909"
       height="1.9035499"
       x="0.28158039"
       y="1.5751199"
       ry="0" />
    <path
       style="fill:#1a4d84;fill-opacity:1;stroke-width:0.0174027px"
       d="m 2.2590577,4.6536158 c 0.027232,-0.058466 0.045097,-0.098748 0.2134244,-0.4812393 0.2261643,-0.5139077 0.2257858,-0.5130929 0.2314474,-0.4979598 0.00304,0.00819 0.047189,0.1097063 0.098103,0.2257062 0.050913,0.1159957 0.1513217,0.3464069 0.2231347,0.5120255 L 3.1557365,4.7132732 3.3843037,4.7112332 3.61287,4.7091932 3.658201,4.6094902 C 3.6831326,4.5546367 3.7410685,4.4183193 3.7869519,4.3065421 3.8328301,4.1947649 3.9223373,3.9790701 3.9858523,3.8272214 l 0.1154803,-0.2760896 0.4223997,-0.00194 c 0.3275521,-0.00148 0.4232678,-0.0041 0.4262645,-0.011509 0.00208,-0.00523 0.030175,-0.071644 0.062328,-0.1475645 0.032154,-0.075912 0.090827,-0.2156845 0.1303847,-0.310591 0.039559,-0.094902 0.1000961,-0.2372162 0.1345269,-0.3162465 l 0.062606,-0.1436912 0.2508882,-0.00204 0.2508891,-0.00204 0.1783043,-0.4294722 c 0.098068,-0.2362091 0.1801776,-0.433786 0.1824667,-0.4390581 0.0033,-0.00763 -0.2258552,-0.00956 -1.1309848,-0.00956 H 3.9362605 l -0.047554,0.116954 C 3.8625515,1.9186903 3.7913595,2.093833 3.730497,2.2435733 3.6696357,2.3933064 3.5779565,2.6159038 3.5267717,2.7382261 3.4755895,2.8605494 3.4189714,2.9985931 3.4009613,3.0449926 3.3829483,3.0913856 3.3659343,3.1319179 3.3631563,3.1350587 3.3579463,3.1409705 3.3404733,3.1003294 3.1253805,2.5810111 3.054623,2.4101816 2.9740189,2.2169196 2.9462541,2.1515398 L 2.8957751,2.0326676 H 2.695128 2.494481 L 2.2708862,2.5826381 C 2.1479092,2.8851215 2.0449328,3.1284254 2.0420508,3.1233118 2.0333526,3.1078817 1.8057603,2.5681024 1.7697427,2.4774779 1.7513046,2.4310737 1.6969365,2.2999372 1.6489324,2.1860503 1.6009274,2.0721634 1.5395921,1.9246285 1.512632,1.8581948 L 1.46362,1.7374067 H 0.99205901 c -0.25935809,0 -0.47156017,0.00296 -0.47156017,0.00649 0,0.00364 0.0276832,0.071756 0.061521,0.1514653 0.0338379,0.079711 0.0881183,0.2090971 0.12062277,0.2875278 0.032501,0.078436 0.0965751,0.2302806 0.14237867,0.3374425 0.1440506,0.3370179 0.25279972,0.5953606 0.50331382,1.1956632 0.165863,0.3974536 0.2016445,0.4833068 0.2493109,0.5981929 0.028873,0.069595 0.078544,0.1877819 0.110381,0.2626314 l 0.057884,0.136091 0.2327392,3.65e-5 0.2327393,3.63e-5 z"
       id="path2" />
    <path
       style="fill:#ffffff;fill-opacity:1;stroke-width:0.0174027px"
       d="M 1.9526591,4.4745959 C 1.928726,4.4650374 1.8949055,4.4226161 1.8730819,4.3746645 1.8394176,4.3007001 1.5598375,3.6476746 1.498774,3.5003819 1.4664205,3.4223439 1.4003099,3.2653233 1.351856,3.1514364 1.1396106,2.6525696 0.86405146,1.9883732 0.86405146,1.9756502 c 0,-0.0033 0.0975057,-0.00695 0.21667874,-0.00807 l 0.2166779,-0.00204 0.1164968,0.2708608 c 0.064073,0.1489722 0.1453371,0.339882 0.1805856,0.4242423 0.035244,0.084365 0.089453,0.2137775 0.1204535,0.2875928 0.065289,0.1554651 0.2214941,0.5387984 0.2820368,0.6921402 0.036416,0.09224 0.053917,0.1239983 0.053917,0.097838 0,-0.00421 0.022553,-0.061993 0.050123,-0.1284578 0.07041,-0.1697584 0.3948884,-0.96853 0.4766836,-1.1734375 l 0.068119,-0.1706379 0.048057,1.46e-5 0.048057,1.49e-5 0.016528,0.040248 c 0.073622,0.1792998 0.3728001,0.9004204 0.4398778,1.0602437 0.046026,0.1096723 0.1007263,0.2417485 0.1215516,0.2935121 l 0.037866,0.094117 0.045904,-0.1094559 C 3.4289084,3.5841619 3.4681805,3.4883156 3.4909242,3.431372 3.513668,3.374431 3.6035589,3.1552836 3.6906771,2.9443817 3.7777945,2.7334798 3.9029313,2.4297822 3.968758,2.2694969 l 0.1196861,-0.2914275 0.8857592,-0.00194 0.8857591,-0.00194 -0.036954,0.086311 c -0.020322,0.047473 -0.062545,0.1492748 -0.093827,0.2262297 l -0.056877,0.1399212 -0.6796875,0.00194 -0.6796865,0.00194 -0.026841,0.061356 c -0.060722,0.1387925 -0.1738033,0.4035586 -0.1738033,0.4069336 0,0.00204 0.1914975,0.00273 0.4255492,0.0016 0.2340526,-0.00113 0.4256151,-3.38e-4 0.425695,0.00182 5.73e-5,0.00216 -0.042606,0.1030499 -0.094846,0.2243225 L 4.7736951,3.3470448 H 4.3580074 3.9423188 l -0.017943,0.044094 c -0.00987,0.024249 -0.072207,0.1717885 -0.1385437,0.3278557 -0.06633,0.1560669 -0.1548912,0.3656114 -0.196798,0.4656533 -0.1120218,0.2674243 -0.1300145,0.2935917 -0.2018814,0.2935917 -0.046182,0 -0.072094,-0.016169 -0.099484,-0.062085 C 3.276071,4.3967081 3.2002726,4.2267198 3.1192344,4.0383929 3.0381989,3.8500661 2.9117443,3.5562114 2.8382281,3.385381 2.7647101,3.2145518 2.7023878,3.0723229 2.6997289,3.0693177 2.6970378,3.0663592 2.6460379,3.1767482 2.586326,3.3147292 2.5266105,3.4527114 2.4224978,3.6932969 2.3549592,3.8493652 2.2874223,4.005431 2.2156136,4.17281 2.1953899,4.2213181 c -0.020226,0.048509 -0.054134,0.1215248 -0.075358,0.1622596 -0.030956,0.059421 -0.043777,0.076479 -0.064794,0.086277 -0.028056,0.013069 -0.076053,0.015316 -0.1025632,0.00478 z"
       id="path3" />
  </g>
</svg>
